<?xml version="1.0" encoding="UTF-8" standalone="no"?>
<!-- Created with Inkscape (http://www.inkscape.org/) -->

<svg
   xmlns:dc="http://purl.org/dc/elements/1.1/"
   xmlns:cc="http://creativecommons.org/ns#"
   xmlns:rdf="http://www.w3.org/1999/02/22-rdf-syntax-ns#"
   xmlns:svg="http://www.w3.org/2000/svg"
   xmlns="http://www.w3.org/2000/svg"
   xmlns:sodipodi="http://sodipodi.sourceforge.net/DTD/sodipodi-0.dtd"
   xmlns:inkscape="http://www.inkscape.org/namespaces/inkscape"
   width="7.9374952mm"
   height="8.297452mm"
   viewBox="0 0 7.9374952 8.297452"
   version="1.1"
   id="svg8"
   inkscape:version="0.92.4 (5da689c313, 2019-01-14)"
   sodipodi:docname="CheckIcon.svg">
  <defs
     id="defs2" />
  <sodipodi:namedview
     id="base"
     pagecolor="#ffffff"
     bordercolor="#666666"
     borderopacity="1.0"
     inkscape:pageopacity="0.0"
     inkscape:pageshadow="2"
     inkscape:zoom="0.98994949"
     inkscape:cx="-88.395364"
     inkscape:cy="156.44374"
     inkscape:document-units="mm"
     inkscape:current-layer="layer1"
     showgrid="false"
     fit-margin-top="0"
     fit-margin-left="0"
     fit-margin-right="0"
     fit-margin-bottom="0"
     inkscape:window-width="2560"
     inkscape:window-height="1377"
     inkscape:window-x="1272"
     inkscape:window-y="2152"
     inkscape:window-maximized="1" />
  <metadata
     id="metadata5">
    <rdf:RDF>
      <cc:Work
         rdf:about="">
        <dc:format>image/svg+xml</dc:format>
        <dc:type
           rdf:resource="http://purl.org/dc/dcmitype/StillImage" />
        <dc:title></dc:title>
      </cc:Work>
    </rdf:RDF>
  </metadata>
  <g
     inkscape:label="Layer 1"
     inkscape:groupmode="layer"
     id="layer1"
     transform="translate(-37.209448,-191.21323)">
    <path
       inkscape:connector-curvature="0"
       id="path370"
       style="fill:#77c92b;fill-opacity:1;fill-rule:evenodd;stroke:none;stroke-width:0.00666743"
       d="m 37.509477,195.45996 v -7e-5 c 0.400046,-0.39998 1.054628,-0.39998 1.454647,0 l 1.336954,1.33696 2.927268,-5.07005 c 0.282834,-0.48999 0.915106,-0.65941 1.405095,-0.37658 v 0 c 0.489923,0.28297 0.659343,0.91517 0.376511,1.40509 l -3.512537,6.08391 c -0.04967,0.13574 -0.128681,0.26296 -0.23716,0.3715 v 0 c -0.313769,0.31377 -0.784091,0.38131 -1.1654,0.20296 -0.03047,-0.0138 -0.06054,-0.0292 -0.09014,-0.0463 v 0 c -0.109413,-0.0632 -0.202757,-0.14382 -0.278698,-0.23636 l -2.216535,-2.21646 c -0.400046,-0.40011 -0.400046,-1.05458 0,-1.45463" />
  </g>
</svg>
